<svg width="316" height="289" viewBox="0 0 316 289" fill="none" xmlns="http://www.w3.org/2000/svg">
<rect width="316" height="289" rx="40" fill="black"/>
<path d="M126.448 193.617C96.166 193.617 76.027 171.861 76.027 138.933C76.027 106.152 96.754 83.955 127.183 83.955C151.144 83.955 169.519 98.214 173.488 119.97H158.053C154.084 106.152 142.177 97.773 126.742 97.773C105.28 97.773 91.168 113.943 91.168 138.786C91.168 163.629 105.28 179.799 126.742 179.799C142.324 179.799 154.672 171.42 158.641 158.337H173.929C169.372 179.505 150.409 193.617 126.448 193.617ZM176.452 224.193V212.874H185.713C192.328 212.874 197.62 211.845 201.001 202.731L203.5 195.822L174.541 120.117H189.094L209.968 178.035L231.283 120.117H245.542L211.585 208.17C206.734 220.518 199.531 225.663 188.506 225.663C183.949 225.663 180.127 225.075 176.452 224.193Z" fill="white" fill-opacity="0.58"/>
</svg>
